<svg xmlns="http://www.w3.org/2000/svg" width="83" height="80" viewBox="0 0 83 80">
  <g id="付款成功" transform="translate(-146 -94)">
    <path id="路径_45914" data-name="路径 45914" d="M167.056,145.722m-3.5,0a3.5,3.5,0,1,0,3.5-3.5A3.5,3.5,0,0,0,163.556,145.722Z" transform="translate(-7.556 -43.222)" fill="#54eab7"/>
    <path id="路径_45915" data-name="路径 45915" d="M899.5,415.945m-3.5,0a3.5,3.5,0,1,0,3.5-3.5A3.5,3.5,0,0,0,896,415.945Z" transform="translate(-674 -289.445)" fill="#54eab7"/>
    <path id="路径_45918" data-name="路径 45918" d="M51.778,528.223m-2,0a2,2,0,1,0,2-2A2,2,0,0,0,49.778,528.223Z" transform="translate(96.222 -392.223)" fill="#fcc763"/>
    <path id="路径_45920" data-name="路径 45920" d="M186.889,819.778m-2,0a2,2,0,1,0,2-2A2,2,0,0,0,184.889,819.778Z" transform="translate(-26.889 -657.778)" fill="#ff4d4f"/>
    <g id="组_32652" data-name="组 32652">
      <path id="路径_45909" data-name="路径 45909" d="M111.111,111.111m-40,0a40,40,0,1,0,40-40,40,40,0,0,0-40,40Z" transform="translate(76.889 22.889)" fill="#54eab7" opacity="0.05"/>
      <path id="路径_45910" data-name="路径 45910" d="M213.889,213.889m-29,0a29,29,0,1,0,29-29A29,29,0,0,0,184.889,213.889Z" transform="translate(-25.889 -79.889)" fill="#54eab7" opacity="0.1"/>
      <path id="路径_45911" data-name="路径 45911" d="M314.556,314.555m-23,0a23,23,0,1,0,23-23A23,23,0,0,0,291.556,314.555Z" transform="translate(-126.556 -180.556)" fill="#54eab7"/>
      <g id="组_32651" data-name="组 32651" transform="translate(-1577 458)">
        <path id="选中-3" d="M8.269,11.312,2.533,6.481,0,8.678,10.157,19.45c1.707-4.7-.3-6.794-1.888-8.138Z" transform="translate(1754 -334.481)" fill="#fff" opacity="0.5"/>
        <path id="选中-3-2" data-name="选中-3" d="M6.916,12.513,4.549,15.719,8.577,20C10.3,15.712,15.754,7.333,22.412,1.376L21.8,0A63.421,63.421,0,0,0,6.916,12.513Z" transform="translate(1755.588 -335)" fill="#fff"/>
      </g>
    </g>
    <path id="路径_45919" data-name="路径 45919" d="M826.389,243.278m-1.5,0a1.5,1.5,0,1,0,1.5-1.5A1.5,1.5,0,0,0,824.889,243.278Z" transform="translate(-608.889 -133.778)" fill="#fa7cec"/>
    <path id="路径_45916" data-name="路径 45916" d="M777.111,798.444m-2,0a2,2,0,1,0,2-2A2,2,0,0,0,775.111,798.444Z" transform="translate(-564.111 -638.445)" fill="#54eab7"/>
    <path id="路径_45917" data-name="路径 45917" d="M819.778,450m-2,0a2,2,0,1,0,2-2A2,2,0,0,0,817.778,450Z" transform="translate(-602.778 -320)" fill="#fcc763"/>
  </g>
</svg>
